<svg width="44" height="44" viewBox="0 0 44 44" fill="none" xmlns="http://www.w3.org/2000/svg">
<path fill-rule="evenodd" clip-rule="evenodd" d="M24.3789 34.375C24.6836 34.375 24.965 34.2115 25.1158 33.9467L31.2501 23.1791C32.0632 21.7517 32.4045 20.1039 32.225 18.4711L31.5776 12.5793C31.4624 11.5311 30.6395 10.7007 29.5923 10.5762L25.711 10.1145C23.1488 9.80966 20.551 10.0739 18.1026 10.8882C16.8934 11.2904 15.9249 12.2082 15.4583 13.3939L12.3342 21.3333C12.2578 21.5274 12.205 21.73 12.1769 21.9367C11.94 23.6822 13.468 25.1547 15.2036 24.8532L21.4659 23.7656C23.444 23.422 25.1526 25.1677 24.7665 27.138L23.5466 33.3637C23.4439 33.8876 23.845 34.375 24.3789 34.375ZM27.5053 35.3079C26.8653 36.4313 25.6718 37.1249 24.3789 37.125C22.114 37.125 20.4124 35.0576 20.8479 32.8349L22.0678 26.6092C22.073 26.5825 22.0702 26.5662 22.0665 26.5545C22.062 26.5401 22.0527 26.5232 22.0374 26.5076C22.0221 26.4919 22.0054 26.4823 21.9911 26.4774C21.9795 26.4735 21.9633 26.4704 21.9365 26.475L15.6742 27.5627C12.1062 28.1824 8.9648 25.1553 9.45192 21.5668C9.5096 21.1419 9.61812 20.7254 9.77515 20.3263L12.8993 12.387C13.6643 10.4428 15.2522 8.93816 17.2346 8.27878C20.0669 7.33675 23.072 7.03113 26.0359 7.38371L29.9171 7.84541C32.2349 8.12112 34.0562 9.95886 34.3112 12.2789L34.9586 18.1707C35.2014 20.3799 34.7397 22.6092 33.6395 24.5403L27.5053 35.3079Z" fill="#2B231D"/>
</svg>
