<svg width="44" height="44" viewBox="0 0 44 44" fill="none" xmlns="http://www.w3.org/2000/svg">
<path fill-rule="evenodd" clip-rule="evenodd" d="M19.6208 9.625C19.3161 9.625 19.0348 9.78851 18.8839 10.0533L12.7496 20.8209C11.9365 22.2482 11.5952 23.896 11.7747 25.5289L12.4221 31.4206C12.5373 32.4689 13.3602 33.2992 14.4074 33.4238L18.2887 33.8855C20.8509 34.1903 23.4488 33.9261 25.8971 33.1117C27.1063 32.7096 28.0748 31.7918 28.5414 30.606L31.6656 22.6667C31.7419 22.4725 31.7947 22.27 31.8228 22.0633C32.0597 20.3177 30.5317 18.8453 28.7961 19.1467L22.5338 20.2344C20.5557 20.578 18.8472 18.8323 19.2332 16.862L20.4531 10.6362C20.5558 10.1123 20.1547 9.625 19.6208 9.625ZM16.4945 8.69204C17.1344 7.56866 18.3279 6.87501 19.6208 6.875C21.8857 6.87498 23.5873 8.94241 23.1518 11.165L21.9319 17.3908C21.9267 17.4174 21.9295 17.4337 21.9332 17.4454C21.9377 17.4598 21.947 17.4767 21.9623 17.4924C21.9776 17.508 21.9943 17.5177 22.0086 17.5225C22.0202 17.5264 22.0365 17.5296 22.0632 17.5249L28.3255 16.4373C31.8936 15.8176 35.0349 18.8447 34.5478 22.4332C34.4901 22.8581 34.3816 23.2746 34.2246 23.6736L31.1004 31.613C30.3354 33.5571 28.7475 35.0618 26.7651 35.7212C23.9329 36.6632 20.9277 36.9688 17.9638 36.6163L14.0826 36.1545C11.7649 35.8788 9.94349 34.0411 9.68854 31.721L9.04111 25.8293C8.79835 23.6201 9.26002 21.3907 10.3602 19.4596L16.4945 8.69204Z" fill="#2B231D"/>
</svg>
